<?xml version="1.0" standalone="no"?>
<!DOCTYPE svg PUBLIC "-//W3C//DTD SVG 20010904//EN"
 "http://www.w3.org/TR/2001/REC-SVG-20010904/DTD/svg10.dtd">
<svg version="1.0" xmlns="http://www.w3.org/2000/svg"
 width="736.000000pt" height="736.000000pt" viewBox="0 0 736.000000 736.000000"
 preserveAspectRatio="xMidYMid meet">

<g transform="translate(0.000000,736.000000) scale(0.100000,-0.100000)"
fill="#000000" stroke="none">
<path d="M2540 4685 l0 -155 330 0 330 0 0 -675 0 -675 155 0 155 0 0 675 0
675 118 0 c410 0 751 -72 955 -203 31 -20 60 -37 63 -37 14 0 -90 132 -162
205 -131 133 -307 239 -488 294 -155 47 -212 51 -853 51 l-603 0 0 -155z"/>
<path d="M4242 4298 c187 -181 280 -416 265 -671 -22 -365 -273 -668 -637
-770 -70 -20 -105 -21 -547 -25 l-473 -3 0 675 0 676 -155 0 -155 0 0 -831 0
-830 648 4 c693 4 680 3 844 57 442 147 763 568 785 1031 11 229 -45 379 -196
529 -113 113 -237 176 -400 204 l-34 6 55 -52z"/>
</g>
</svg>
